<svg xmlns="http://www.w3.org/2000/svg" width="100" height="81.082" viewBox="0 0 100 81.082">
  <g transform="translate(-661.588 -460.859)">
    <path d="M706.033,469.838q-7.06,4.043-11.411,6.96a52.671,52.671,0,0,0-8.859,7.707,35.245,35.245,0,0,0-6.456,9.429,42.954,42.954,0,0,0-3.153,12.721h7.207q9.308,0,14.64,4.579t5.33,13.439a17.735,17.735,0,0,1-4.73,11.787q-4.731,5.483-12.989,5.481-12.914,0-18.468-8.467t-5.556-22.257a37.637,37.637,0,0,1,4.2-17.758A62.9,62.9,0,0,1,676,479.145a73.708,73.708,0,0,1,13.063-10.94q6.9-4.5,11.561-7.346Zm55.555,0q-7.06,4.043-11.411,6.96a52.644,52.644,0,0,0-8.859,7.707,34.717,34.717,0,0,0-6.532,9.5,43.681,43.681,0,0,0-3.078,12.645h7.207q9.308,0,14.639,4.579t5.331,13.439a17.732,17.732,0,0,1-4.73,11.787q-4.731,5.483-12.988,5.481-12.915,0-18.469-8.467t-5.555-22.257a37.645,37.645,0,0,1,4.2-17.758,62.927,62.927,0,0,1,10.211-14.314,73.673,73.673,0,0,1,13.063-10.94q6.905-4.5,11.562-7.346Z" fill="#fff"/>
  </g>
</svg>
